<mxfile host="Electron" agent="Mozilla/5.0 (Windows NT 10.0; Win64; x64) AppleWebKit/537.36 (KHTML, like Gecko) draw.io/24.7.17 Chrome/128.0.6613.36 Electron/32.0.1 Safari/537.36" version="24.7.17">
  <diagram name="Page-1" id="EEgflY-DrUepgB5gmenr">
    <mxGraphModel dx="1366" dy="804" grid="1" gridSize="10" guides="1" tooltips="1" connect="1" arrows="1" fold="1" page="1" pageScale="1" pageWidth="850" pageHeight="1100" math="0" shadow="0">
      <root>
        <mxCell id="0" />
        <mxCell id="1" parent="0" />
        <mxCell id="V0EJ6qWciN5CCJlL_36q-1" value="Start" style="whiteSpace=wrap;strokeWidth=2;" vertex="1" parent="1">
          <mxGeometry x="1085" y="20" width="96" height="49" as="geometry" />
        </mxCell>
        <mxCell id="V0EJ6qWciN5CCJlL_36q-2" value="Receive Inquiry from CS Agent or Begin Independent Check" style="rhombus;strokeWidth=2;whiteSpace=wrap;" vertex="1" parent="1">
          <mxGeometry x="991" y="119" width="285" height="285" as="geometry" />
        </mxCell>
        <mxCell id="V0EJ6qWciN5CCJlL_36q-3" value="Review Transaction Details" style="whiteSpace=wrap;strokeWidth=2;" vertex="1" parent="1">
          <mxGeometry x="1008" y="454" width="251" height="49" as="geometry" />
        </mxCell>
        <mxCell id="V0EJ6qWciN5CCJlL_36q-4" value="Check for Coin Mixing" style="whiteSpace=wrap;strokeWidth=2;" vertex="1" parent="1">
          <mxGeometry x="1026" y="553" width="215" height="49" as="geometry" />
        </mxCell>
        <mxCell id="V0EJ6qWciN5CCJlL_36q-5" value="Is Coin Mixing Detected?" style="rhombus;strokeWidth=2;whiteSpace=wrap;" vertex="1" parent="1">
          <mxGeometry x="1022" y="652" width="223" height="223" as="geometry" />
        </mxCell>
        <mxCell id="V0EJ6qWciN5CCJlL_36q-6" value="Proceed with Standard Transaction" style="whiteSpace=wrap;strokeWidth=2;" vertex="1" parent="1">
          <mxGeometry x="730" y="1510" width="222" height="67" as="geometry" />
        </mxCell>
        <mxCell id="V0EJ6qWciN5CCJlL_36q-7" value="Reject Withdrawal and Offer Options" style="whiteSpace=wrap;strokeWidth=2;" vertex="1" parent="1">
          <mxGeometry x="1143" y="948" width="224" height="67" as="geometry" />
        </mxCell>
        <mxCell id="V0EJ6qWciN5CCJlL_36q-8" value="Option 1: Require User to Wager 2x Deposit" style="whiteSpace=wrap;strokeWidth=2;" vertex="1" parent="1">
          <mxGeometry x="985" y="1065" width="243" height="67" as="geometry" />
        </mxCell>
        <mxCell id="V0EJ6qWciN5CCJlL_36q-9" value="Option 2: Return Funds to Original Deposit Address" style="whiteSpace=wrap;strokeWidth=2;" vertex="1" parent="1">
          <mxGeometry x="1303" y="1065" width="246" height="67" as="geometry" />
        </mxCell>
        <mxCell id="V0EJ6qWciN5CCJlL_36q-10" value="Info: Notify User About Potential Loss if Original Address was from Exchange" style="whiteSpace=wrap;strokeWidth=2;" vertex="1" parent="1">
          <mxGeometry x="1296" y="1253" width="259" height="84" as="geometry" />
        </mxCell>
        <mxCell id="V0EJ6qWciN5CCJlL_36q-11" value="Wager Requirement Met?" style="rhombus;strokeWidth=2;whiteSpace=wrap;" vertex="1" parent="1">
          <mxGeometry x="992" y="1181" width="228" height="228" as="geometry" />
        </mxCell>
        <mxCell id="V0EJ6qWciN5CCJlL_36q-12" value="Reject Withdrawal Request" style="whiteSpace=wrap;strokeWidth=2;" vertex="1" parent="1">
          <mxGeometry x="1002" y="1519" width="255" height="49" as="geometry" />
        </mxCell>
        <mxCell id="V0EJ6qWciN5CCJlL_36q-13" value="Check for Withdrawals to Same Wallet from Multiple Accounts" style="whiteSpace=wrap;strokeWidth=2;" vertex="1" parent="1">
          <mxGeometry x="715" y="1654" width="251" height="84" as="geometry" />
        </mxCell>
        <mxCell id="V0EJ6qWciN5CCJlL_36q-14" value="Are Multiple Accounts Detected?" style="rhombus;strokeWidth=2;whiteSpace=wrap;" vertex="1" parent="1">
          <mxGeometry x="729" y="1788" width="224" height="224" as="geometry" />
        </mxCell>
        <mxCell id="V0EJ6qWciN5CCJlL_36q-15" value="Proceed with Standard Transaction" style="whiteSpace=wrap;strokeWidth=2;" vertex="1" parent="1">
          <mxGeometry x="444" y="2849" width="222" height="67" as="geometry" />
        </mxCell>
        <mxCell id="V0EJ6qWciN5CCJlL_36q-16" value="Reject Withdrawal and Suspend All Accounts" style="whiteSpace=wrap;strokeWidth=2;" vertex="1" parent="1">
          <mxGeometry x="811" y="2085" width="224" height="67" as="geometry" />
        </mxCell>
        <mxCell id="V0EJ6qWciN5CCJlL_36q-17" value="Request Selfie + ID + Gambi Paper from All Users" style="whiteSpace=wrap;strokeWidth=2;" vertex="1" parent="1">
          <mxGeometry x="794" y="2201" width="258" height="67" as="geometry" />
        </mxCell>
        <mxCell id="V0EJ6qWciN5CCJlL_36q-18" value="Escalate to KYC Team via Slack for Document Review" style="whiteSpace=wrap;strokeWidth=2;" vertex="1" parent="1">
          <mxGeometry x="642" y="2395" width="256" height="67" as="geometry" />
        </mxCell>
        <mxCell id="V0EJ6qWciN5CCJlL_36q-19" value="Verification Approved?" style="rhombus;strokeWidth=2;whiteSpace=wrap;" vertex="1" parent="1">
          <mxGeometry x="665" y="2566" width="210" height="210" as="geometry" />
        </mxCell>
        <mxCell id="V0EJ6qWciN5CCJlL_36q-20" value="Suspend All Accounts Permanently" style="whiteSpace=wrap;strokeWidth=2;" vertex="1" parent="1">
          <mxGeometry x="716" y="2849" width="210" height="67" as="geometry" />
        </mxCell>
        <mxCell id="V0EJ6qWciN5CCJlL_36q-21" value="Check for High-Value Deposits &gt; $10,000 by Non-KYC Users" style="whiteSpace=wrap;strokeWidth=2;" vertex="1" parent="1">
          <mxGeometry x="435" y="2966" width="240" height="84" as="geometry" />
        </mxCell>
        <mxCell id="V0EJ6qWciN5CCJlL_36q-22" value="Is the Deposit High-Value?" style="rhombus;strokeWidth=2;whiteSpace=wrap;" vertex="1" parent="1">
          <mxGeometry x="438" y="3100" width="234" height="234" as="geometry" />
        </mxCell>
        <mxCell id="V0EJ6qWciN5CCJlL_36q-23" value="Proceed with Next Steps" style="whiteSpace=wrap;strokeWidth=2;" vertex="1" parent="1">
          <mxGeometry x="135" y="3425" width="235" height="49" as="geometry" />
        </mxCell>
        <mxCell id="V0EJ6qWciN5CCJlL_36q-24" value="Temporarily Ban User to Prevent Playing or Withdrawal" style="whiteSpace=wrap;strokeWidth=2;" vertex="1" parent="1">
          <mxGeometry x="824" y="3407" width="234" height="84" as="geometry" />
        </mxCell>
        <mxCell id="V0EJ6qWciN5CCJlL_36q-25" value="Request KYC Documents and Escalate to Risk &amp; KYC Teams via Slack" style="whiteSpace=wrap;strokeWidth=2;" vertex="1" parent="1">
          <mxGeometry x="813" y="3541" width="256" height="84" as="geometry" />
        </mxCell>
        <mxCell id="V0EJ6qWciN5CCJlL_36q-26" value="Risk Team Assesses Financial and Reputational Impact" style="whiteSpace=wrap;strokeWidth=2;" vertex="1" parent="1">
          <mxGeometry x="815" y="3732" width="252" height="84" as="geometry" />
        </mxCell>
        <mxCell id="V0EJ6qWciN5CCJlL_36q-27" value="KYC Team Verifies User’s Documents" style="whiteSpace=wrap;strokeWidth=2;" vertex="1" parent="1">
          <mxGeometry x="822" y="4023" width="237" height="67" as="geometry" />
        </mxCell>
        <mxCell id="V0EJ6qWciN5CCJlL_36q-28" value="KYC Approved?" style="rhombus;strokeWidth=2;whiteSpace=wrap;" vertex="1" parent="1">
          <mxGeometry x="864" y="4240" width="154" height="154" as="geometry" />
        </mxCell>
        <mxCell id="V0EJ6qWciN5CCJlL_36q-29" value="Unban User and Resume All Operations" style="whiteSpace=wrap;strokeWidth=2;" vertex="1" parent="1">
          <mxGeometry x="663" y="4561" width="255" height="67" as="geometry" />
        </mxCell>
        <mxCell id="V0EJ6qWciN5CCJlL_36q-30" value="Maintain Ban and Document for Compliance" style="whiteSpace=wrap;strokeWidth=2;" vertex="1" parent="1">
          <mxGeometry x="968" y="4561" width="246" height="67" as="geometry" />
        </mxCell>
        <mxCell id="V0EJ6qWciN5CCJlL_36q-31" value="Check for Deposit/Withdrawal Issues from CS Agent Inquiries" style="whiteSpace=wrap;strokeWidth=2;" vertex="1" parent="1">
          <mxGeometry x="128" y="3541" width="250" height="84" as="geometry" />
        </mxCell>
        <mxCell id="V0EJ6qWciN5CCJlL_36q-32" value="Are Issues Detected?" style="rhombus;strokeWidth=2;whiteSpace=wrap;" vertex="1" parent="1">
          <mxGeometry x="154" y="3676" width="197" height="197" as="geometry" />
        </mxCell>
        <mxCell id="V0EJ6qWciN5CCJlL_36q-33" value="Proceed with Next Steps" style="whiteSpace=wrap;strokeWidth=2;" vertex="1" parent="1">
          <mxGeometry x="22" y="6394" width="235" height="49" as="geometry" />
        </mxCell>
        <mxCell id="V0EJ6qWciN5CCJlL_36q-34" value="Is the Issue on Our Side?" style="rhombus;strokeWidth=2;whiteSpace=wrap;" vertex="1" parent="1">
          <mxGeometry x="223" y="3945" width="222" height="222" as="geometry" />
        </mxCell>
        <mxCell id="V0EJ6qWciN5CCJlL_36q-35" value="Escalate Issue to Management for Resolution" style="whiteSpace=wrap;strokeWidth=2;" vertex="1" parent="1">
          <mxGeometry x="55" y="4284" width="257" height="67" as="geometry" />
        </mxCell>
        <mxCell id="V0EJ6qWciN5CCJlL_36q-36" value="Determine Cause of User’s Issue" style="whiteSpace=wrap;strokeWidth=2;" vertex="1" parent="1">
          <mxGeometry x="361" y="4284" width="249" height="67" as="geometry" />
        </mxCell>
        <mxCell id="V0EJ6qWciN5CCJlL_36q-37" value="Did User Deposit to Wrong Address?" style="rhombus;strokeWidth=2;whiteSpace=wrap;" vertex="1" parent="1">
          <mxGeometry x="359" y="4468" width="254" height="254" as="geometry" />
        </mxCell>
        <mxCell id="V0EJ6qWciN5CCJlL_36q-38" value="Inform User: Funds Cannot Be Retrieved" style="whiteSpace=wrap;strokeWidth=2;" vertex="1" parent="1">
          <mxGeometry x="207" y="4878" width="252" height="67" as="geometry" />
        </mxCell>
        <mxCell id="V0EJ6qWciN5CCJlL_36q-39" value="Did User Deposit Wrong Coin?" style="rhombus;strokeWidth=2;whiteSpace=wrap;" vertex="1" parent="1">
          <mxGeometry x="515" y="4794" width="234" height="234" as="geometry" />
        </mxCell>
        <mxCell id="V0EJ6qWciN5CCJlL_36q-40" value="Inform User: Funds Cannot Be Retrieved" style="whiteSpace=wrap;strokeWidth=2;" vertex="1" parent="1">
          <mxGeometry x="354" y="5171" width="252" height="67" as="geometry" />
        </mxCell>
        <mxCell id="V0EJ6qWciN5CCJlL_36q-41" value="Did User Use Wrong Network?" style="rhombus;strokeWidth=2;whiteSpace=wrap;" vertex="1" parent="1">
          <mxGeometry x="669" y="5101" width="206" height="206" as="geometry" />
        </mxCell>
        <mxCell id="V0EJ6qWciN5CCJlL_36q-42" value="Inform User: Funds Cannot Be Retrieved" style="whiteSpace=wrap;strokeWidth=2;" vertex="1" parent="1">
          <mxGeometry x="493" y="5476" width="252" height="67" as="geometry" />
        </mxCell>
        <mxCell id="V0EJ6qWciN5CCJlL_36q-43" value="Did User Deposit via Smart Contract?" style="rhombus;strokeWidth=2;whiteSpace=wrap;" vertex="1" parent="1">
          <mxGeometry x="795" y="5380" width="258" height="258" as="geometry" />
        </mxCell>
        <mxCell id="V0EJ6qWciN5CCJlL_36q-44" value="Inform User: Funds Cannot Be Retrieved" style="whiteSpace=wrap;strokeWidth=2;" vertex="1" parent="1">
          <mxGeometry x="646" y="5807" width="252" height="67" as="geometry" />
        </mxCell>
        <mxCell id="V0EJ6qWciN5CCJlL_36q-45" value="Is Transaction Still Pending on Blockchain?" style="rhombus;strokeWidth=2;whiteSpace=wrap;" vertex="1" parent="1">
          <mxGeometry x="948" y="5711" width="258" height="258" as="geometry" />
        </mxCell>
        <mxCell id="V0EJ6qWciN5CCJlL_36q-46" value="Inform User: Transaction Needs Sufficient Confirmations to Be Credited" style="whiteSpace=wrap;strokeWidth=2;" vertex="1" parent="1">
          <mxGeometry x="802" y="6117" width="236" height="102" as="geometry" />
        </mxCell>
        <mxCell id="V0EJ6qWciN5CCJlL_36q-47" value="Was Transaction Failed on Blockchain?" style="rhombus;strokeWidth=2;whiteSpace=wrap;" vertex="1" parent="1">
          <mxGeometry x="1097" y="6042" width="253" height="253" as="geometry" />
        </mxCell>
        <mxCell id="V0EJ6qWciN5CCJlL_36q-48" value="Inform User: Transaction Failed on Blockchain, Advise User to Contact Wallet Support" style="whiteSpace=wrap;strokeWidth=2;" vertex="1" parent="1">
          <mxGeometry x="1248" y="6368" width="236" height="102" as="geometry" />
        </mxCell>
        <mxCell id="V0EJ6qWciN5CCJlL_36q-49" value="End" style="whiteSpace=wrap;strokeWidth=2;" vertex="1" parent="1">
          <mxGeometry x="96" y="6519" width="86" height="49" as="geometry" />
        </mxCell>
        <mxCell id="V0EJ6qWciN5CCJlL_36q-50" value="Info: Coin mixing involves users depositing funds and attempting to withdraw them without wagering. This tactic can be used for money laundering." style="rounded=1;whiteSpace=wrap;arcSize=50;strokeWidth=2;" vertex="1" parent="1">
          <mxGeometry x="1307" y="1482" width="238" height="122" as="geometry" />
        </mxCell>
        <mxCell id="V0EJ6qWciN5CCJlL_36q-51" value="Info: For multiple accounts using the same wallet, require all involved users to submit a selfie, ID, and a paper with &#39;Gambi&#39; written on it for verification. Escalate to KYC Team via Slack for document review." style="rounded=1;whiteSpace=wrap;arcSize=50;strokeWidth=2;" vertex="1" parent="1">
          <mxGeometry x="948" y="2341" width="254" height="175" as="geometry" />
        </mxCell>
        <mxCell id="V0EJ6qWciN5CCJlL_36q-52" value="Info: Maintain ban on user if KYC verification fails. Document for compliance and reporting." style="rounded=1;whiteSpace=wrap;arcSize=50;strokeWidth=2;" vertex="1" parent="1">
          <mxGeometry x="979" y="4868" width="225" height="87" as="geometry" />
        </mxCell>
        <mxCell id="V0EJ6qWciN5CCJlL_36q-53" value="" style="curved=1;startArrow=none;endArrow=block;exitX=0.5;exitY=1;entryX=0.5;entryY=0;rounded=0;" edge="1" parent="1" source="V0EJ6qWciN5CCJlL_36q-1" target="V0EJ6qWciN5CCJlL_36q-2">
          <mxGeometry relative="1" as="geometry">
            <Array as="points" />
          </mxGeometry>
        </mxCell>
        <mxCell id="V0EJ6qWciN5CCJlL_36q-54" value="" style="curved=1;startArrow=none;endArrow=block;exitX=0.5;exitY=1;entryX=0.5;entryY=0.01;rounded=0;" edge="1" parent="1" source="V0EJ6qWciN5CCJlL_36q-2" target="V0EJ6qWciN5CCJlL_36q-3">
          <mxGeometry relative="1" as="geometry">
            <Array as="points" />
          </mxGeometry>
        </mxCell>
        <mxCell id="V0EJ6qWciN5CCJlL_36q-55" value="" style="curved=1;startArrow=none;endArrow=block;exitX=0.5;exitY=1.01;entryX=0.5;entryY=0.01;rounded=0;" edge="1" parent="1" source="V0EJ6qWciN5CCJlL_36q-3" target="V0EJ6qWciN5CCJlL_36q-4">
          <mxGeometry relative="1" as="geometry">
            <Array as="points" />
          </mxGeometry>
        </mxCell>
        <mxCell id="V0EJ6qWciN5CCJlL_36q-56" value="" style="curved=1;startArrow=none;endArrow=block;exitX=0.5;exitY=1.01;entryX=0.5;entryY=0;rounded=0;" edge="1" parent="1" source="V0EJ6qWciN5CCJlL_36q-4" target="V0EJ6qWciN5CCJlL_36q-5">
          <mxGeometry relative="1" as="geometry">
            <Array as="points" />
          </mxGeometry>
        </mxCell>
        <mxCell id="V0EJ6qWciN5CCJlL_36q-57" value="No" style="curved=1;startArrow=none;endArrow=block;exitX=0;exitY=0.74;entryX=0.47;entryY=0;rounded=0;" edge="1" parent="1" source="V0EJ6qWciN5CCJlL_36q-5" target="V0EJ6qWciN5CCJlL_36q-6">
          <mxGeometry relative="1" as="geometry">
            <Array as="points">
              <mxPoint x="824" y="912" />
              <mxPoint x="824" y="1446" />
            </Array>
          </mxGeometry>
        </mxCell>
        <mxCell id="V0EJ6qWciN5CCJlL_36q-58" value="Yes" style="curved=1;startArrow=none;endArrow=block;exitX=0.91;exitY=1;entryX=0.5;entryY=0;rounded=0;" edge="1" parent="1" source="V0EJ6qWciN5CCJlL_36q-5" target="V0EJ6qWciN5CCJlL_36q-7">
          <mxGeometry relative="1" as="geometry">
            <Array as="points">
              <mxPoint x="1255" y="912" />
            </Array>
          </mxGeometry>
        </mxCell>
        <mxCell id="V0EJ6qWciN5CCJlL_36q-59" value="" style="curved=1;startArrow=none;endArrow=block;exitX=0.12;exitY=1;entryX=0.5;entryY=0;rounded=0;" edge="1" parent="1" source="V0EJ6qWciN5CCJlL_36q-7" target="V0EJ6qWciN5CCJlL_36q-8">
          <mxGeometry relative="1" as="geometry">
            <Array as="points">
              <mxPoint x="1106" y="1040" />
            </Array>
          </mxGeometry>
        </mxCell>
        <mxCell id="V0EJ6qWciN5CCJlL_36q-60" value="" style="curved=1;startArrow=none;endArrow=block;exitX=0.93;exitY=1;entryX=0.5;entryY=0;rounded=0;" edge="1" parent="1" source="V0EJ6qWciN5CCJlL_36q-7" target="V0EJ6qWciN5CCJlL_36q-9">
          <mxGeometry relative="1" as="geometry">
            <Array as="points">
              <mxPoint x="1426" y="1040" />
            </Array>
          </mxGeometry>
        </mxCell>
        <mxCell id="V0EJ6qWciN5CCJlL_36q-61" value="" style="curved=1;startArrow=none;endArrow=block;exitX=0.5;exitY=0.99;entryX=0.5;entryY=0;rounded=0;" edge="1" parent="1" source="V0EJ6qWciN5CCJlL_36q-9" target="V0EJ6qWciN5CCJlL_36q-10">
          <mxGeometry relative="1" as="geometry">
            <Array as="points" />
          </mxGeometry>
        </mxCell>
        <mxCell id="V0EJ6qWciN5CCJlL_36q-62" value="" style="curved=1;startArrow=none;endArrow=block;exitX=0.5;exitY=0.99;entryX=0.5;entryY=0;rounded=0;" edge="1" parent="1" source="V0EJ6qWciN5CCJlL_36q-8" target="V0EJ6qWciN5CCJlL_36q-11">
          <mxGeometry relative="1" as="geometry">
            <Array as="points" />
          </mxGeometry>
        </mxCell>
        <mxCell id="V0EJ6qWciN5CCJlL_36q-63" value="Yes" style="curved=1;startArrow=none;endArrow=block;exitX=0.02;exitY=1;entryX=0.69;entryY=0;rounded=0;" edge="1" parent="1" source="V0EJ6qWciN5CCJlL_36q-11" target="V0EJ6qWciN5CCJlL_36q-6">
          <mxGeometry relative="1" as="geometry">
            <Array as="points">
              <mxPoint x="962" y="1446" />
            </Array>
          </mxGeometry>
        </mxCell>
        <mxCell id="V0EJ6qWciN5CCJlL_36q-64" value="No" style="curved=1;startArrow=none;endArrow=block;exitX=0.58;exitY=1;entryX=0.5;entryY=-0.01;rounded=0;" edge="1" parent="1" source="V0EJ6qWciN5CCJlL_36q-11" target="V0EJ6qWciN5CCJlL_36q-12">
          <mxGeometry relative="1" as="geometry">
            <Array as="points">
              <mxPoint x="1129" y="1446" />
            </Array>
          </mxGeometry>
        </mxCell>
        <mxCell id="V0EJ6qWciN5CCJlL_36q-65" value="" style="curved=1;startArrow=none;endArrow=block;exitX=0.5;exitY=0.99;entryX=0.5;entryY=0;rounded=0;" edge="1" parent="1" source="V0EJ6qWciN5CCJlL_36q-6" target="V0EJ6qWciN5CCJlL_36q-13">
          <mxGeometry relative="1" as="geometry">
            <Array as="points" />
          </mxGeometry>
        </mxCell>
        <mxCell id="V0EJ6qWciN5CCJlL_36q-66" value="" style="curved=1;startArrow=none;endArrow=block;exitX=0.5;exitY=1;entryX=0.5;entryY=0;rounded=0;" edge="1" parent="1" source="V0EJ6qWciN5CCJlL_36q-13" target="V0EJ6qWciN5CCJlL_36q-14">
          <mxGeometry relative="1" as="geometry">
            <Array as="points" />
          </mxGeometry>
        </mxCell>
        <mxCell id="V0EJ6qWciN5CCJlL_36q-67" value="No" style="curved=1;startArrow=none;endArrow=block;exitX=0;exitY=0.75;entryX=0.46;entryY=0;rounded=0;" edge="1" parent="1" source="V0EJ6qWciN5CCJlL_36q-14" target="V0EJ6qWciN5CCJlL_36q-15">
          <mxGeometry relative="1" as="geometry">
            <Array as="points">
              <mxPoint x="538" y="2048" />
              <mxPoint x="538" y="2813" />
            </Array>
          </mxGeometry>
        </mxCell>
        <mxCell id="V0EJ6qWciN5CCJlL_36q-68" value="Yes" style="curved=1;startArrow=none;endArrow=block;exitX=0.77;exitY=1;entryX=0.5;entryY=0;rounded=0;" edge="1" parent="1" source="V0EJ6qWciN5CCJlL_36q-14" target="V0EJ6qWciN5CCJlL_36q-16">
          <mxGeometry relative="1" as="geometry">
            <Array as="points">
              <mxPoint x="923" y="2048" />
            </Array>
          </mxGeometry>
        </mxCell>
        <mxCell id="V0EJ6qWciN5CCJlL_36q-69" value="" style="curved=1;startArrow=none;endArrow=block;exitX=0.5;exitY=0.99;entryX=0.5;entryY=0.01;rounded=0;" edge="1" parent="1" source="V0EJ6qWciN5CCJlL_36q-16" target="V0EJ6qWciN5CCJlL_36q-17">
          <mxGeometry relative="1" as="geometry">
            <Array as="points" />
          </mxGeometry>
        </mxCell>
        <mxCell id="V0EJ6qWciN5CCJlL_36q-70" value="" style="curved=1;startArrow=none;endArrow=block;exitX=0.22;exitY=1;entryX=0.5;entryY=0;rounded=0;" edge="1" parent="1" source="V0EJ6qWciN5CCJlL_36q-17" target="V0EJ6qWciN5CCJlL_36q-18">
          <mxGeometry relative="1" as="geometry">
            <Array as="points">
              <mxPoint x="770" y="2305" />
            </Array>
          </mxGeometry>
        </mxCell>
        <mxCell id="V0EJ6qWciN5CCJlL_36q-71" value="" style="curved=1;startArrow=none;endArrow=block;exitX=0.5;exitY=1;entryX=0.5;entryY=0;rounded=0;" edge="1" parent="1" source="V0EJ6qWciN5CCJlL_36q-18" target="V0EJ6qWciN5CCJlL_36q-19">
          <mxGeometry relative="1" as="geometry">
            <Array as="points" />
          </mxGeometry>
        </mxCell>
        <mxCell id="V0EJ6qWciN5CCJlL_36q-72" value="Yes" style="curved=1;startArrow=none;endArrow=block;exitX=0.03;exitY=1;entryX=0.68;entryY=0;rounded=0;" edge="1" parent="1" source="V0EJ6qWciN5CCJlL_36q-19" target="V0EJ6qWciN5CCJlL_36q-15">
          <mxGeometry relative="1" as="geometry">
            <Array as="points">
              <mxPoint x="637" y="2813" />
            </Array>
          </mxGeometry>
        </mxCell>
        <mxCell id="V0EJ6qWciN5CCJlL_36q-73" value="No" style="curved=1;startArrow=none;endArrow=block;exitX=0.68;exitY=1;entryX=0.5;entryY=0;rounded=0;" edge="1" parent="1" source="V0EJ6qWciN5CCJlL_36q-19" target="V0EJ6qWciN5CCJlL_36q-20">
          <mxGeometry relative="1" as="geometry">
            <Array as="points">
              <mxPoint x="821" y="2813" />
            </Array>
          </mxGeometry>
        </mxCell>
        <mxCell id="V0EJ6qWciN5CCJlL_36q-74" value="" style="curved=1;startArrow=none;endArrow=block;exitX=0.5;exitY=1;entryX=0.5;entryY=0;rounded=0;" edge="1" parent="1" source="V0EJ6qWciN5CCJlL_36q-15" target="V0EJ6qWciN5CCJlL_36q-21">
          <mxGeometry relative="1" as="geometry">
            <Array as="points" />
          </mxGeometry>
        </mxCell>
        <mxCell id="V0EJ6qWciN5CCJlL_36q-75" value="" style="curved=1;startArrow=none;endArrow=block;exitX=0.5;exitY=1;entryX=0.5;entryY=0;rounded=0;" edge="1" parent="1" source="V0EJ6qWciN5CCJlL_36q-21" target="V0EJ6qWciN5CCJlL_36q-22">
          <mxGeometry relative="1" as="geometry">
            <Array as="points" />
          </mxGeometry>
        </mxCell>
        <mxCell id="V0EJ6qWciN5CCJlL_36q-76" value="No" style="curved=1;startArrow=none;endArrow=block;exitX=0;exitY=0.75;entryX=0.5;entryY=-0.01;rounded=0;" edge="1" parent="1" source="V0EJ6qWciN5CCJlL_36q-22" target="V0EJ6qWciN5CCJlL_36q-23">
          <mxGeometry relative="1" as="geometry">
            <Array as="points">
              <mxPoint x="253" y="3371" />
            </Array>
          </mxGeometry>
        </mxCell>
        <mxCell id="V0EJ6qWciN5CCJlL_36q-77" value="Yes" style="curved=1;startArrow=none;endArrow=block;exitX=1;exitY=0.7;entryX=0.5;entryY=0;rounded=0;" edge="1" parent="1" source="V0EJ6qWciN5CCJlL_36q-22" target="V0EJ6qWciN5CCJlL_36q-24">
          <mxGeometry relative="1" as="geometry">
            <Array as="points">
              <mxPoint x="941" y="3371" />
            </Array>
          </mxGeometry>
        </mxCell>
        <mxCell id="V0EJ6qWciN5CCJlL_36q-78" value="" style="curved=1;startArrow=none;endArrow=block;exitX=0.5;exitY=1;entryX=0.5;entryY=0;rounded=0;" edge="1" parent="1" source="V0EJ6qWciN5CCJlL_36q-24" target="V0EJ6qWciN5CCJlL_36q-25">
          <mxGeometry relative="1" as="geometry">
            <Array as="points" />
          </mxGeometry>
        </mxCell>
        <mxCell id="V0EJ6qWciN5CCJlL_36q-79" value="" style="curved=1;startArrow=none;endArrow=block;exitX=0.5;exitY=1.01;entryX=0.5;entryY=0;rounded=0;" edge="1" parent="1" source="V0EJ6qWciN5CCJlL_36q-25" target="V0EJ6qWciN5CCJlL_36q-26">
          <mxGeometry relative="1" as="geometry">
            <Array as="points" />
          </mxGeometry>
        </mxCell>
        <mxCell id="V0EJ6qWciN5CCJlL_36q-80" value="" style="curved=1;startArrow=none;endArrow=block;exitX=0.5;exitY=1;entryX=0.5;entryY=0;rounded=0;" edge="1" parent="1" source="V0EJ6qWciN5CCJlL_36q-26" target="V0EJ6qWciN5CCJlL_36q-27">
          <mxGeometry relative="1" as="geometry">
            <Array as="points" />
          </mxGeometry>
        </mxCell>
        <mxCell id="V0EJ6qWciN5CCJlL_36q-81" value="" style="curved=1;startArrow=none;endArrow=block;exitX=0.5;exitY=0.99;entryX=0.5;entryY=0;rounded=0;" edge="1" parent="1" source="V0EJ6qWciN5CCJlL_36q-27" target="V0EJ6qWciN5CCJlL_36q-28">
          <mxGeometry relative="1" as="geometry">
            <Array as="points" />
          </mxGeometry>
        </mxCell>
        <mxCell id="V0EJ6qWciN5CCJlL_36q-82" value="Yes" style="curved=1;startArrow=none;endArrow=block;exitX=0;exitY=0.88;entryX=0.5;entryY=0;rounded=0;" edge="1" parent="1" source="V0EJ6qWciN5CCJlL_36q-28" target="V0EJ6qWciN5CCJlL_36q-29">
          <mxGeometry relative="1" as="geometry">
            <Array as="points">
              <mxPoint x="790" y="4431" />
            </Array>
          </mxGeometry>
        </mxCell>
        <mxCell id="V0EJ6qWciN5CCJlL_36q-83" value="No" style="curved=1;startArrow=none;endArrow=block;exitX=1;exitY=0.88;entryX=0.5;entryY=0;rounded=0;" edge="1" parent="1" source="V0EJ6qWciN5CCJlL_36q-28" target="V0EJ6qWciN5CCJlL_36q-30">
          <mxGeometry relative="1" as="geometry">
            <Array as="points">
              <mxPoint x="1091" y="4431" />
            </Array>
          </mxGeometry>
        </mxCell>
        <mxCell id="V0EJ6qWciN5CCJlL_36q-84" value="" style="curved=1;startArrow=none;endArrow=block;exitX=0.5;exitY=0.99;entryX=0.5;entryY=0;rounded=0;" edge="1" parent="1" source="V0EJ6qWciN5CCJlL_36q-23" target="V0EJ6qWciN5CCJlL_36q-31">
          <mxGeometry relative="1" as="geometry">
            <Array as="points" />
          </mxGeometry>
        </mxCell>
        <mxCell id="V0EJ6qWciN5CCJlL_36q-85" value="" style="curved=1;startArrow=none;endArrow=block;exitX=0.5;exitY=1.01;entryX=0.5;entryY=0;rounded=0;" edge="1" parent="1" source="V0EJ6qWciN5CCJlL_36q-31" target="V0EJ6qWciN5CCJlL_36q-32">
          <mxGeometry relative="1" as="geometry">
            <Array as="points" />
          </mxGeometry>
        </mxCell>
        <mxCell id="V0EJ6qWciN5CCJlL_36q-86" value="No" style="curved=1;startArrow=none;endArrow=block;exitX=0;exitY=0.79;entryX=0.36;entryY=0;rounded=0;" edge="1" parent="1" source="V0EJ6qWciN5CCJlL_36q-32" target="V0EJ6qWciN5CCJlL_36q-33">
          <mxGeometry relative="1" as="geometry">
            <Array as="points">
              <mxPoint x="20" y="3909" />
              <mxPoint x="20" y="6331" />
            </Array>
          </mxGeometry>
        </mxCell>
        <mxCell id="V0EJ6qWciN5CCJlL_36q-87" value="Yes" style="curved=1;startArrow=none;endArrow=block;exitX=0.8;exitY=1;entryX=0.5;entryY=0;rounded=0;" edge="1" parent="1" source="V0EJ6qWciN5CCJlL_36q-32" target="V0EJ6qWciN5CCJlL_36q-34">
          <mxGeometry relative="1" as="geometry">
            <Array as="points">
              <mxPoint x="334" y="3909" />
            </Array>
          </mxGeometry>
        </mxCell>
        <mxCell id="V0EJ6qWciN5CCJlL_36q-88" value="Yes" style="curved=1;startArrow=none;endArrow=block;exitX=0;exitY=0.99;entryX=0.5;entryY=0;rounded=0;" edge="1" parent="1" source="V0EJ6qWciN5CCJlL_36q-34" target="V0EJ6qWciN5CCJlL_36q-35">
          <mxGeometry relative="1" as="geometry">
            <Array as="points">
              <mxPoint x="183" y="4204" />
            </Array>
          </mxGeometry>
        </mxCell>
        <mxCell id="V0EJ6qWciN5CCJlL_36q-89" value="No" style="curved=1;startArrow=none;endArrow=block;exitX=1;exitY=0.99;entryX=0.5;entryY=0;rounded=0;" edge="1" parent="1" source="V0EJ6qWciN5CCJlL_36q-34" target="V0EJ6qWciN5CCJlL_36q-36">
          <mxGeometry relative="1" as="geometry">
            <Array as="points">
              <mxPoint x="486" y="4204" />
            </Array>
          </mxGeometry>
        </mxCell>
        <mxCell id="V0EJ6qWciN5CCJlL_36q-90" value="" style="curved=1;startArrow=none;endArrow=block;exitX=0.5;exitY=0.99;entryX=0.5;entryY=0;rounded=0;" edge="1" parent="1" source="V0EJ6qWciN5CCJlL_36q-36" target="V0EJ6qWciN5CCJlL_36q-37">
          <mxGeometry relative="1" as="geometry">
            <Array as="points" />
          </mxGeometry>
        </mxCell>
        <mxCell id="V0EJ6qWciN5CCJlL_36q-91" value="Yes" style="curved=1;startArrow=none;endArrow=block;exitX=0.03;exitY=1;entryX=0.5;entryY=0;rounded=0;" edge="1" parent="1" source="V0EJ6qWciN5CCJlL_36q-37" target="V0EJ6qWciN5CCJlL_36q-38">
          <mxGeometry relative="1" as="geometry">
            <Array as="points">
              <mxPoint x="333" y="4758" />
            </Array>
          </mxGeometry>
        </mxCell>
        <mxCell id="V0EJ6qWciN5CCJlL_36q-92" value="No" style="curved=1;startArrow=none;endArrow=block;exitX=0.95;exitY=1;entryX=0.5;entryY=0;rounded=0;" edge="1" parent="1" source="V0EJ6qWciN5CCJlL_36q-37" target="V0EJ6qWciN5CCJlL_36q-39">
          <mxGeometry relative="1" as="geometry">
            <Array as="points">
              <mxPoint x="632" y="4758" />
            </Array>
          </mxGeometry>
        </mxCell>
        <mxCell id="V0EJ6qWciN5CCJlL_36q-93" value="Yes" style="curved=1;startArrow=none;endArrow=block;exitX=0;exitY=1;entryX=0.5;entryY=0;rounded=0;" edge="1" parent="1" source="V0EJ6qWciN5CCJlL_36q-39" target="V0EJ6qWciN5CCJlL_36q-40">
          <mxGeometry relative="1" as="geometry">
            <Array as="points">
              <mxPoint x="480" y="5065" />
            </Array>
          </mxGeometry>
        </mxCell>
        <mxCell id="V0EJ6qWciN5CCJlL_36q-94" value="No" style="curved=1;startArrow=none;endArrow=block;exitX=0.96;exitY=1;entryX=0.5;entryY=0;rounded=0;" edge="1" parent="1" source="V0EJ6qWciN5CCJlL_36q-39" target="V0EJ6qWciN5CCJlL_36q-41">
          <mxGeometry relative="1" as="geometry">
            <Array as="points">
              <mxPoint x="772" y="5065" />
            </Array>
          </mxGeometry>
        </mxCell>
        <mxCell id="V0EJ6qWciN5CCJlL_36q-95" value="Yes" style="curved=1;startArrow=none;endArrow=block;exitX=0;exitY=0.96;entryX=0.5;entryY=0;rounded=0;" edge="1" parent="1" source="V0EJ6qWciN5CCJlL_36q-41" target="V0EJ6qWciN5CCJlL_36q-42">
          <mxGeometry relative="1" as="geometry">
            <Array as="points">
              <mxPoint x="619" y="5344" />
            </Array>
          </mxGeometry>
        </mxCell>
        <mxCell id="V0EJ6qWciN5CCJlL_36q-96" value="No" style="curved=1;startArrow=none;endArrow=block;exitX=1;exitY=0.96;entryX=0.5;entryY=0;rounded=0;" edge="1" parent="1" source="V0EJ6qWciN5CCJlL_36q-41" target="V0EJ6qWciN5CCJlL_36q-43">
          <mxGeometry relative="1" as="geometry">
            <Array as="points">
              <mxPoint x="924" y="5344" />
            </Array>
          </mxGeometry>
        </mxCell>
        <mxCell id="V0EJ6qWciN5CCJlL_36q-97" value="Yes" style="curved=1;startArrow=none;endArrow=block;exitX=0.04;exitY=1;entryX=0.5;entryY=0;rounded=0;" edge="1" parent="1" source="V0EJ6qWciN5CCJlL_36q-43" target="V0EJ6qWciN5CCJlL_36q-44">
          <mxGeometry relative="1" as="geometry">
            <Array as="points">
              <mxPoint x="771" y="5675" />
            </Array>
          </mxGeometry>
        </mxCell>
        <mxCell id="V0EJ6qWciN5CCJlL_36q-98" value="No" style="curved=1;startArrow=none;endArrow=block;exitX=0.96;exitY=1;entryX=0.5;entryY=0;rounded=0;" edge="1" parent="1" source="V0EJ6qWciN5CCJlL_36q-43" target="V0EJ6qWciN5CCJlL_36q-45">
          <mxGeometry relative="1" as="geometry">
            <Array as="points">
              <mxPoint x="1076" y="5675" />
            </Array>
          </mxGeometry>
        </mxCell>
        <mxCell id="V0EJ6qWciN5CCJlL_36q-99" value="Yes" style="curved=1;startArrow=none;endArrow=block;exitX=0.02;exitY=1;entryX=0.5;entryY=0;rounded=0;" edge="1" parent="1" source="V0EJ6qWciN5CCJlL_36q-45" target="V0EJ6qWciN5CCJlL_36q-46">
          <mxGeometry relative="1" as="geometry">
            <Array as="points">
              <mxPoint x="920" y="6005" />
            </Array>
          </mxGeometry>
        </mxCell>
        <mxCell id="V0EJ6qWciN5CCJlL_36q-100" value="No" style="curved=1;startArrow=none;endArrow=block;exitX=0.94;exitY=1;entryX=0.5;entryY=0;rounded=0;" edge="1" parent="1" source="V0EJ6qWciN5CCJlL_36q-45" target="V0EJ6qWciN5CCJlL_36q-47">
          <mxGeometry relative="1" as="geometry">
            <Array as="points">
              <mxPoint x="1224" y="6005" />
            </Array>
          </mxGeometry>
        </mxCell>
        <mxCell id="V0EJ6qWciN5CCJlL_36q-101" value="Yes" style="curved=1;startArrow=none;endArrow=block;exitX=0.22;exitY=1;entryX=0;entryY=0.06;rounded=0;" edge="1" parent="1" source="V0EJ6qWciN5CCJlL_36q-47" target="V0EJ6qWciN5CCJlL_36q-48">
          <mxGeometry relative="1" as="geometry">
            <Array as="points">
              <mxPoint x="1133" y="6331" />
            </Array>
          </mxGeometry>
        </mxCell>
        <mxCell id="V0EJ6qWciN5CCJlL_36q-102" value="No" style="curved=1;startArrow=none;endArrow=block;exitX=0.57;exitY=1;entryX=1;entryY=0.31;rounded=0;" edge="1" parent="1" source="V0EJ6qWciN5CCJlL_36q-47" target="V0EJ6qWciN5CCJlL_36q-33">
          <mxGeometry relative="1" as="geometry">
            <Array as="points">
              <mxPoint x="1247" y="6331" />
            </Array>
          </mxGeometry>
        </mxCell>
        <mxCell id="V0EJ6qWciN5CCJlL_36q-103" value="" style="curved=1;startArrow=none;endArrow=block;exitX=0.5;exitY=1;entryX=0.51;entryY=0.01;rounded=0;" edge="1" parent="1" source="V0EJ6qWciN5CCJlL_36q-33" target="V0EJ6qWciN5CCJlL_36q-49">
          <mxGeometry relative="1" as="geometry">
            <Array as="points" />
          </mxGeometry>
        </mxCell>
        <mxCell id="V0EJ6qWciN5CCJlL_36q-104" value="" style="curved=1;startArrow=none;endArrow=block;exitX=0.5;exitY=1;entryX=0.5;entryY=0;rounded=0;" edge="1" parent="1" source="V0EJ6qWciN5CCJlL_36q-10" target="V0EJ6qWciN5CCJlL_36q-50">
          <mxGeometry relative="1" as="geometry">
            <Array as="points" />
          </mxGeometry>
        </mxCell>
        <mxCell id="V0EJ6qWciN5CCJlL_36q-105" value="" style="curved=1;startArrow=none;endArrow=block;exitX=0.78;exitY=1;entryX=0.5;entryY=0;rounded=0;" edge="1" parent="1" source="V0EJ6qWciN5CCJlL_36q-17" target="V0EJ6qWciN5CCJlL_36q-51">
          <mxGeometry relative="1" as="geometry">
            <Array as="points">
              <mxPoint x="1075" y="2305" />
            </Array>
          </mxGeometry>
        </mxCell>
        <mxCell id="V0EJ6qWciN5CCJlL_36q-106" value="" style="curved=1;startArrow=none;endArrow=block;exitX=0.5;exitY=1;entryX=0.5;entryY=0;rounded=0;" edge="1" parent="1" source="V0EJ6qWciN5CCJlL_36q-30" target="V0EJ6qWciN5CCJlL_36q-52">
          <mxGeometry relative="1" as="geometry">
            <Array as="points" />
          </mxGeometry>
        </mxCell>
      </root>
    </mxGraphModel>
  </diagram>
</mxfile>
